<svg width="34" height="34" viewBox="0 0 34 34" fill="none" xmlns="http://www.w3.org/2000/svg">
<path fill-rule="evenodd" clip-rule="evenodd" d="M7.34573 15.1414C6.82078 15.6471 6.11037 15.962 5.32549 15.962C3.71618 15.962 2.40685 14.6527 2.40685 13.0434C2.40685 11.4341 3.71618 10.1248 5.32549 10.1248C6.93479 10.1248 8.24412 11.4341 8.24412 13.0434C8.24412 13.135 8.23195 13.2232 8.21977 13.3115C8.21584 13.34 8.21192 13.3685 8.2084 13.3971L11.0883 14.8369C11.6132 14.3312 12.3236 14.0163 13.1085 14.0163C13.5577 14.0163 13.9783 14.1267 14.3588 14.3089L18.2655 10.4022C18.0834 10.0217 17.9729 9.60109 17.9729 9.15189C17.9729 7.54259 19.2822 6.23326 20.8915 6.23326C21.4889 6.23326 22.044 6.41491 22.5072 6.72426L25.9016 4.17907C25.8154 3.90418 25.7559 3.61764 25.7559 3.31463C25.7559 1.70533 27.0652 0.395996 28.6745 0.395996C30.2838 0.395996 31.5932 1.70533 31.5932 3.31463C31.5932 4.92393 30.2838 6.23326 28.6745 6.23326C28.0771 6.23326 27.522 6.05161 27.0589 5.74226L23.6645 8.28745C23.7506 8.56234 23.8102 8.84888 23.8102 9.15189C23.8102 10.7612 22.5008 12.0705 20.8915 12.0705C20.4423 12.0705 20.0218 11.9601 19.6412 11.7779L15.7345 15.6846C15.9167 16.0651 16.0271 16.4857 16.0271 16.9349C16.0271 18.5442 14.7178 19.8535 13.1085 19.8535C11.4992 19.8535 10.1899 18.5442 10.1899 16.9349C10.1899 16.8433 10.202 16.7551 10.2142 16.6668C10.2181 16.6383 10.2221 16.6098 10.2256 16.5812L7.34573 15.1414ZM31.5932 31.6578H32.6309C33.1685 31.6578 33.6038 32.093 33.6038 32.6307C33.6038 33.1683 33.1685 33.6035 32.6309 33.6035H1.36912C0.831502 33.6035 0.39624 33.1683 0.39624 32.6307C0.39624 32.093 0.831502 31.6578 1.36912 31.6578H2.40685V20.8264C2.40685 20.2888 2.84211 19.8535 3.37973 19.8535H7.27124C7.80886 19.8535 8.24412 20.2888 8.24412 20.8264V31.6578H10.1899V24.7179C10.1899 24.1803 10.6251 23.7451 11.1627 23.7451H15.0543C15.5919 23.7451 16.0271 24.1803 16.0271 24.7179V31.6578H17.9729V16.9349C17.9729 16.3973 18.4082 15.962 18.9458 15.962H22.8373C23.3749 15.962 23.8102 16.3973 23.8102 16.9349V31.6578H25.7559V11.0976C25.7559 10.56 26.1912 10.1248 26.7288 10.1248H30.6203C31.1579 10.1248 31.5932 10.56 31.5932 11.0976V31.6578Z" fill="white"/>
</svg>
