<svg width="34" height="23" viewBox="0 0 34 23" fill="none" xmlns="http://www.w3.org/2000/svg">
<path fill-rule="evenodd" clip-rule="evenodd" d="M33.5606 4.68276V4.96379C33.5606 5.3936 33.2121 5.74209 32.7823 5.74209H1.17454C0.744725 5.74209 0.39624 5.3936 0.39624 4.96379V4.68276C0.39624 2.21113 2.39985 0.20752 4.87148 0.20752H29.0854C31.557 0.20752 33.5606 2.21113 33.5606 4.68276ZM0.39624 9.24445V17.8274C0.39624 20.299 2.39985 22.3026 4.87148 22.3026H29.0854C31.557 22.3026 33.5606 20.299 33.5606 17.8274V9.24445C33.5606 8.81463 33.2121 8.46615 32.7823 8.46615H1.17454C0.744725 8.46615 0.39624 8.81463 0.39624 9.24445ZM8.67653 14.6926H6.60106C5.84883 14.6926 5.23903 14.0828 5.23903 13.3305C5.23903 12.5783 5.84883 11.9685 6.60106 11.9685H8.67653C9.42876 11.9685 10.0386 12.5783 10.0386 13.3305C10.0386 14.0828 9.42876 14.6926 8.67653 14.6926Z" fill="white"/>
</svg>
