<svg width="34" height="42" viewBox="0 0 34 42" fill="none" xmlns="http://www.w3.org/2000/svg">
<path fill-rule="evenodd" clip-rule="evenodd" d="M22.8061 3.05072L20.23 10.5589H5.55814L2.98174 3.05072L7.25139 0.245117L10.0727 2.09925L12.8941 0.245117L15.7154 2.09925L18.5368 0.245117L22.8061 3.05072ZM6.04237 12.9772H19.7458V15.3956H6.04237V12.9772ZM18.6174 27.003H24.7638C24.6369 26.6485 24.4918 26.2978 24.3271 25.9521L20.4517 17.8139H5.33649L1.46103 25.9521C-0.153817 29.3433 0.0791699 33.2644 2.08475 36.4402C4.09001 39.6164 7.52971 41.5127 11.2861 41.5127H14.502C15.0744 41.5127 15.6414 41.468 16.199 41.3821V34.258H18.6174V27.003ZM15.8902 30.8668C15.7378 31.1763 15.5372 31.4301 15.2885 31.6275C15.0398 31.8252 14.7558 31.9745 14.4365 32.0752C14.1173 32.1756 13.7867 32.2374 13.4451 32.2597V33.6132H12.5544V32.2374C12.0418 32.1926 11.533 32.0919 11.0283 31.9354C10.5233 31.7786 10.0705 31.5812 9.66973 31.3422L10.6051 29.4295C10.8057 29.5564 11.021 29.6758 11.2512 29.7875C11.4442 29.8845 11.6687 29.9796 11.925 30.0728C12.1813 30.1663 12.4429 30.2311 12.7102 30.2683V29.2841C12.4801 29.2246 12.2499 29.1537 12.0197 29.0716C11.6706 28.9522 11.3699 28.8238 11.1177 28.6856C10.8652 28.5477 10.6571 28.3912 10.494 28.2158C10.3306 28.0408 10.21 27.8411 10.1319 27.6176C10.0538 27.3937 10.0148 27.1365 10.0148 26.8456C10.0148 26.4429 10.0819 26.0868 10.2154 25.7773C10.3492 25.4681 10.5308 25.2012 10.761 24.9776C10.9911 24.7538 11.2603 24.5749 11.5686 24.4405C11.8768 24.3064 12.2052 24.2207 12.5544 24.1833V23.0536H13.4454V24.1946C13.6903 24.2242 13.9277 24.2692 14.1582 24.329C14.3883 24.3885 14.609 24.4575 14.8209 24.5356C15.0325 24.614 15.2312 24.6961 15.4166 24.7818C15.6024 24.8677 15.773 24.948 15.9292 25.0223L14.9935 26.8232C14.8301 26.719 14.6519 26.6221 14.4589 26.5323C14.2955 26.4505 14.1116 26.374 13.9076 26.3031C13.7032 26.2323 13.4973 26.1784 13.2892 26.141V27.1475C13.3563 27.163 13.4268 27.1831 13.5011 27.2092C13.5751 27.2354 13.6532 27.2596 13.735 27.282C14.0987 27.3937 14.4271 27.5169 14.7205 27.651C15.0139 27.7854 15.2646 27.9438 15.4724 28.1264C15.6802 28.3093 15.8401 28.5313 15.9512 28.792C16.0627 29.0533 16.1184 29.37 16.1184 29.7431C16.1184 30.183 16.0422 30.5576 15.8902 30.8668ZM12.2647 26.4873C12.2647 26.5994 12.3018 26.6907 12.3762 26.7615C12.4505 26.8327 12.5616 26.8979 12.7102 26.9574V26.1073C12.4133 26.1444 12.2647 26.2713 12.2647 26.4873ZM13.2892 29.4743V30.302C13.4677 30.2872 13.5937 30.2497 13.668 30.1902C13.7423 30.1304 13.7794 30.0523 13.7794 29.9553C13.7794 29.8508 13.735 29.7595 13.6456 29.6811C13.5565 29.603 13.4378 29.5341 13.2892 29.4743ZM21.0357 29.4214H33.5298V34.258H21.0357V29.4214ZM31.1118 36.6761H18.6174V41.5127H31.1118V36.6761Z" fill="#EDF3F8"/>
</svg>
